# Created by FreeCAD <https://www.freecad.org>
v -22.500000 0.000000 50.000000
v -22.500000 -0.000000 45.000000
v -22.500000 -50.000000 50.000000
v -22.500000 -50.000000 45.000000
v 22.500000 0.000000 50.000000
v 22.500000 -0.000000 45.000000
v 22.500000 -50.000000 45.000000
v -20.500000 -48.000000 45.000000
v 20.500000 -48.000000 45.000000
v -20.500000 -2.000000 45.000000
v 20.500000 -2.000000 45.000000
v 22.500000 -50.000000 50.000000
v -19.000000 -48.000000 6.000000
v -19.000000 -48.000000 16.000000
v -20.500000 -48.000000 -0.000000
v -19.000000 -48.000000 18.000000
v 20.500000 -48.000000 -0.000000
v -19.000000 -48.000000 28.000000
v -19.000000 -48.000000 40.000000
v -19.000000 -48.000000 30.000000
v 19.000000 -48.000000 6.000000
v 19.000000 -48.000000 16.000000
v 19.000000 -48.000000 18.000000
v 19.000000 -48.000000 28.000000
v 19.000000 -48.000000 30.000000
v 19.000000 -48.000000 40.000000
v 20.500000 -2.000000 -0.000000
v -20.500000 -2.000000 0.000000
v -19.000000 -50.000000 6.000000
v -19.000000 -50.000000 16.000000
v 19.000000 -50.000000 16.000000
v 19.000000 -50.000000 6.000000
v 19.000000 -50.000000 28.000000
v -19.000000 -50.000000 28.000000
v 19.000000 -50.000000 18.000000
v -19.000000 -50.000000 18.000000
v 19.000000 -50.000000 40.000000
v -19.000000 -50.000000 40.000000
v 19.000000 -50.000000 30.000000
v -19.000000 -50.000000 30.000000
vn -1.000000 -0.000000 0.000000
vn -1.000000 0.000000 0.000000
vn -0.000000 1.000000 -0.000000
vn 0.000000 1.000000 -0.000000
vn 0.000000 0.000000 -1.000000
vn -0.000000 -0.000000 -1.000000
vn 0.000000 -0.000000 -1.000000
vn 0.000000 0.000000 -1.000000
vn 0.000000 0.000000 -1.000000
vn 0.000000 0.000000 -1.000000
vn 0.000000 -0.000000 -1.000000
vn 0.000000 0.000000 -1.000000
vn 0.000000 -1.000000 0.000000
vn 0.000000 -1.000000 0.000000
vn 0.000000 -0.000000 1.000000
vn 0.000000 0.000000 1.000000
vn 1.000000 0.000000 0.000000
vn 1.000000 0.000000 -0.000000
vn -0.000000 -1.000000 0.000000
vn -0.000000 -1.000000 0.000000
vn 0.000000 -1.000000 0.000000
vn -0.000000 -1.000000 -0.000000
vn -0.000000 -1.000000 -0.000000
vn -0.000000 -1.000000 -0.000000
vn 0.000000 -1.000000 0.000000
vn 0.000000 -1.000000 0.000000
vn 0.000000 -1.000000 0.000000
vn 0.000000 -1.000000 0.000000
vn 0.000000 -1.000000 0.000000
vn 0.000000 -1.000000 0.000000
vn 0.000000 -1.000000 0.000000
vn 0.000000 -1.000000 0.000000
vn 0.000000 -1.000000 0.000000
vn 0.000000 -1.000000 0.000000
vn 0.000000 -1.000000 0.000000
vn 0.000000 -1.000000 0.000000
vn 0.000000 -1.000000 0.000000
vn 0.000000 -1.000000 0.000000
vn 1.000000 0.000000 0.000000
vn 1.000000 -0.000000 0.000000
vn 0.000000 1.000000 0.000000
vn 0.000000 1.000000 0.000000
vn -1.000000 0.000000 0.000000
vn -1.000000 0.000000 0.000000
vn -0.000000 0.000000 -1.000000
vn 0.000000 0.000000 -1.000000
vn -1.000000 -0.000000 0.000000
vn -1.000000 0.000000 -0.000000
vn 0.000000 0.000000 1.000000
vn 0.000000 0.000000 1.000000
vn 1.000000 0.000000 -0.000000
vn 1.000000 0.000000 0.000000
vn 0.000000 0.000000 -1.000000
vn 0.000000 0.000000 -1.000000
vn 0.000000 0.000000 1.000000
vn 0.000000 0.000000 1.000000
vn 1.000000 0.000000 -0.000000
vn 1.000000 0.000000 0.000000
vn 0.000000 0.000000 -1.000000
vn 0.000000 0.000000 -1.000000
vn -1.000000 -0.000000 0.000000
vn -1.000000 0.000000 -0.000000
vn 0.000000 0.000000 1.000000
vn 0.000000 0.000000 1.000000
vn 1.000000 0.000000 -0.000000
vn 1.000000 0.000000 0.000000
vn 0.000000 0.000000 -1.000000
vn 0.000000 0.000000 -1.000000
vn -1.000000 -0.000000 0.000000
vn -1.000000 0.000000 -0.000000
vn 0.000000 -1.000000 0.000000
vn 0.000000 -1.000000 0.000000
vn 0.000000 -1.000000 0.000000
vn 0.000000 -1.000000 0.000000
vn 0.000000 -1.000000 0.000000
vn 0.000000 -1.000000 0.000000
f 1//1 2//1 3//1
f 3//2 2//2 4//2
f 5//3 6//3 2//3
f 5//4 2//4 1//4
f 7//5 4//5 8//5
f 9//6 7//6 8//6
f 10//7 8//7 4//7
f 2//8 10//8 4//8
f 11//9 10//9 2//9
f 6//10 11//10 2//10
f 6//11 7//11 9//11
f 6//12 9//12 11//12
f 7//13 12//13 4//13
f 4//14 12//14 3//14
f 12//15 5//15 3//15
f 5//16 1//16 3//16
f 7//17 6//17 12//17
f 6//18 5//18 12//18
f 13//19 14//19 15//19
f 14//20 16//20 15//20
f 15//21 17//21 13//21
f 18//22 8//22 16//22
f 19//23 8//23 20//23
f 20//24 8//24 18//24
f 17//25 21//25 13//25
f 14//26 22//26 16//26
f 22//27 23//27 16//27
f 18//28 24//28 20//28
f 24//29 25//29 20//29
f 26//30 9//30 19//30
f 19//31 9//31 8//31
f 8//32 15//32 16//32
f 17//33 9//33 21//33
f 21//34 9//34 22//34
f 22//35 9//35 23//35
f 23//36 9//36 24//36
f 24//37 9//37 25//37
f 25//38 9//38 26//38
f 9//39 17//39 27//39
f 9//40 27//40 11//40
f 11//41 27//41 28//41
f 11//42 28//42 10//42
f 15//43 8//43 28//43
f 28//44 8//44 10//44
f 28//45 27//45 15//45
f 15//46 27//46 17//46
f 14//47 29//47 30//47
f 14//48 13//48 29//48
f 22//49 14//49 31//49
f 31//50 14//50 30//50
f 21//51 22//51 32//51
f 32//52 22//52 31//52
f 13//53 21//53 29//53
f 29//54 21//54 32//54
f 24//55 18//55 33//55
f 33//56 18//56 34//56
f 23//57 24//57 35//57
f 35//58 24//58 33//58
f 16//59 23//59 36//59
f 36//60 23//60 35//60
f 18//61 36//61 34//61
f 18//62 16//62 36//62
f 26//63 19//63 37//63
f 37//64 19//64 38//64
f 25//65 26//65 39//65
f 39//66 26//66 37//66
f 20//67 25//67 40//67
f 40//68 25//68 39//68
f 19//69 40//69 38//69
f 19//70 20//70 40//70
f 29//71 32//71 30//71
f 32//72 31//72 30//72
f 36//73 35//73 34//73
f 35//74 33//74 34//74
f 40//75 39//75 38//75
f 39//76 37//76 38//76
