# Created by FreeCAD <https://www.freecad.org>
v -20.000000 0.000000 -30.000000
v 20.000000 0.000000 -30.000000
v -20.000000 -2.000000 -30.000000
v 20.000000 -2.000000 -30.000000
v 20.000000 0.000000 30.000000
v 20.000000 -2.000000 30.000000
v -20.000000 0.000000 30.000000
v -20.000000 -2.000000 30.000000
v 18.000000 -2.000000 -28.000000
v -18.000000 0.000000 -28.000000
v -18.000000 -2.000000 -28.000000
v 18.000000 0.000000 -28.000000
v 18.000000 0.000000 28.000000
v 18.000000 -2.000000 28.000000
v -18.000000 0.000000 28.000000
v -18.000000 -2.000000 28.000000
vn 0.000000 0.000000 -1.000000
vn 0.000000 0.000000 -1.000000
vn 1.000000 0.000000 -0.000000
vn 1.000000 0.000000 0.000000
vn 0.000000 0.000000 1.000000
vn 0.000000 0.000000 1.000000
vn -1.000000 -0.000000 -0.000000
vn -1.000000 0.000000 0.000000
vn 0.000000 0.000000 1.000000
vn 0.000000 0.000000 1.000000
vn -1.000000 0.000000 -0.000000
vn -1.000000 -0.000000 0.000000
vn 0.000000 0.000000 -1.000000
vn 0.000000 0.000000 -1.000000
vn 1.000000 0.000000 -0.000000
vn 1.000000 0.000000 0.000000
vn 0.000000 1.000000 0.000000
vn 0.000000 1.000000 0.000000
vn 0.000000 1.000000 0.000000
vn 0.000000 1.000000 0.000000
vn 0.000000 1.000000 0.000000
vn 0.000000 1.000000 0.000000
vn 0.000000 1.000000 0.000000
vn 0.000000 1.000000 0.000000
vn 0.000000 -1.000000 0.000000
vn 0.000000 -1.000000 0.000000
vn -0.000000 -1.000000 -0.000000
vn -0.000000 -1.000000 0.000000
vn 0.000000 -1.000000 0.000000
vn 0.000000 -1.000000 0.000000
vn 0.000000 -1.000000 0.000000
vn 0.000000 -1.000000 0.000000
f 1//1 2//1 3//1
f 3//2 2//2 4//2
f 2//3 5//3 4//3
f 4//4 5//4 6//4
f 5//5 7//5 6//5
f 6//6 7//6 8//6
f 7//7 1//7 8//7
f 8//8 1//8 3//8
f 9//9 10//9 11//9
f 12//10 10//10 9//10
f 13//11 12//11 9//11
f 13//12 9//12 14//12
f 15//13 13//13 14//13
f 15//14 14//14 16//14
f 10//15 15//15 16//15
f 10//16 16//16 11//16
f 12//17 2//17 1//17
f 12//18 1//18 10//18
f 7//19 15//19 10//19
f 7//20 10//20 1//20
f 5//21 13//21 15//21
f 5//22 15//22 7//22
f 5//23 2//23 12//23
f 5//24 12//24 13//24
f 4//25 9//25 3//25
f 3//26 9//26 11//26
f 16//27 8//27 11//27
f 11//28 8//28 3//28
f 14//29 6//29 16//29
f 16//30 6//30 8//30
f 4//31 6//31 9//31
f 9//32 6//32 14//32
