# Created by FreeCAD <https://www.freecad.org>
v -20.000025 0.000000 0.000000
v -15.000000 0.000000 0.000000
v -15.000000 -7.000000 0.000000
v -20.000025 -7.000000 0.000000
v -15.000000 0.000000 30.000000
v -15.000000 -7.000000 30.000000
v -15.000000 0.000000 40.000000
v 15.000000 0.000000 30.000000
v 19.999975 0.000000 0.000000
v 14.999951 0.000000 0.000000
v 15.000000 0.000000 40.000000
v -20.000025 0.000000 80.000000
v -15.000000 -0.000000 55.000000
v -15.000025 0.000000 70.000000
v -15.000025 0.000000 80.000000
v 14.999975 0.000000 70.000000
v 15.000000 -0.000000 55.000000
v 19.999975 0.000000 80.000000
v 14.999975 0.000000 80.000000
v -20.000025 -7.000000 30.000000
v -15.000025 -30.000000 30.000000
v -20.000025 -30.000000 30.000000
v 14.999975 -37.000000 30.000000
v -15.000025 -37.000000 30.000000
v 14.999975 -30.000000 30.000000
v 15.000000 -7.000000 30.000000
v 19.999975 -30.000000 30.000000
v 19.999975 -7.000000 30.000000
v -20.000025 -37.000000 40.000000
v -15.000000 -7.000000 40.000000
v -20.000025 -7.000000 40.000000
v 15.000000 -7.000000 40.000000
v 19.999975 -37.000000 40.000000
v 19.999975 -7.000000 40.000000
v -15.000000 -7.000000 55.000000
v -20.000025 -7.000000 80.000000
v -15.000025 -7.000000 70.000000
v -15.000025 -7.000000 80.000000
v 15.000000 -7.000000 55.000000
v 14.999975 -7.000000 70.000000
v 19.999975 -7.000000 80.000000
v 14.999975 -7.000000 80.000000
v 14.999951 -7.000000 0.000000
v 19.999975 -7.000000 0.000000
v -20.000025 -30.000000 0.000000
v -15.000025 -30.000000 0.000000
v -15.000025 -37.000000 0.000000
v 14.999975 -37.000000 0.000000
v 14.999975 -30.000000 0.000000
v 19.999975 -30.000000 0.000000
v -20.000025 -37.000000 0.000000
v 19.999975 -37.000000 0.000000
vn 0.000000 0.000000 -1.000000
vn 0.000000 0.000000 -1.000000
vn 1.000000 0.000000 0.000000
vn 1.000000 0.000000 -0.000000
vn 0.000000 1.000000 0.000000
vn 0.000000 1.000000 0.000000
vn 0.000000 1.000000 0.000000
vn 0.000000 1.000000 0.000000
vn 0.000000 1.000000 0.000000
vn 0.000000 1.000000 0.000000
vn 0.000000 1.000000 0.000000
vn -0.000000 1.000000 -0.000000
vn 0.000000 1.000000 0.000000
vn 0.000000 1.000000 -0.000000
vn 0.000000 1.000000 -0.000000
vn 0.000000 1.000000 0.000000
vn 0.000000 1.000000 -0.000000
vn 0.000000 1.000000 0.000000
vn 0.000000 1.000000 0.000000
vn -0.000000 1.000000 0.000000
vn 0.000000 -1.000000 0.000000
vn 0.000000 -1.000000 0.000000
vn 0.000000 0.000000 -1.000000
vn 0.000000 0.000000 -1.000000
vn -0.000000 0.000000 -1.000000
vn -0.000000 -0.000000 -1.000000
vn 0.000000 0.000000 -1.000000
vn 0.000000 -0.000000 -1.000000
vn -0.000000 0.000000 -1.000000
vn -0.000000 -0.000000 -1.000000
vn -0.000000 0.000000 -1.000000
vn 0.000000 -0.000000 -1.000000
vn 0.000000 0.000000 1.000000
vn 0.000000 -0.000000 1.000000
vn 0.000000 0.000000 1.000000
vn 0.000000 -0.000000 1.000000
vn 0.000000 0.000000 1.000000
vn 0.000000 0.000000 1.000000
vn 0.000000 -1.000000 0.000000
vn -0.000000 -1.000000 0.000000
vn -0.000000 -1.000000 -0.000000
vn 0.000000 -1.000000 0.000000
vn 0.000000 -1.000000 0.000000
vn 0.000000 -1.000000 0.000000
vn 0.000000 -1.000000 0.000000
vn 0.000000 -1.000000 0.000000
vn 0.000000 -1.000000 0.000000
vn 0.000000 -1.000000 0.000000
vn 0.000000 0.000000 1.000000
vn 0.000000 0.000000 1.000000
vn 1.000000 0.000000 0.000000
vn 1.000000 0.000000 -0.000000
vn 0.000000 0.000000 1.000000
vn 0.000000 0.000000 1.000000
vn -1.000000 0.000000 0.000002
vn -1.000000 0.000000 0.000002
vn -1.000000 0.000000 0.000000
vn -1.000000 -0.000000 -0.000000
vn 0.000000 0.000000 -1.000000
vn 0.000000 0.000000 -1.000000
vn 0.000000 0.000000 1.000000
vn 0.000000 0.000000 1.000000
vn 1.000000 -0.000000 0.000000
vn 1.000000 0.000000 0.000000
vn 0.000000 0.000000 -1.000000
vn -0.000000 0.000000 -1.000000
vn -1.000000 0.000000 0.000000
vn -1.000000 0.000000 0.000000
vn -0.000000 1.000000 0.000000
vn 0.000000 1.000000 0.000000
vn 1.000000 0.000000 -0.000000
vn 1.000000 0.000000 0.000000
vn -1.000000 0.000000 0.000000
vn -1.000000 0.000000 0.000000
vn -0.000000 1.000000 0.000000
vn 0.000000 1.000000 0.000000
vn 0.000000 -1.000000 0.000000
vn 0.000000 -1.000000 0.000000
vn 0.000000 0.000000 -1.000000
vn 0.000000 0.000000 -1.000000
vn 0.000000 0.000000 -1.000000
vn 0.000000 0.000000 -1.000000
vn -1.000000 0.000000 0.000000
vn -1.000000 -0.000000 0.000000
vn -1.000000 0.000000 0.000000
vn -1.000000 0.000000 0.000000
vn -1.000000 -0.000000 0.000000
vn -1.000000 0.000000 0.000000
vn -1.000000 0.000000 -0.000000
vn -1.000000 0.000000 0.000000
vn 0.000000 -1.000000 0.000000
vn 0.000000 -1.000000 -0.000000
vn 0.000000 -1.000000 -0.000000
vn 0.000000 -1.000000 0.000000
vn 0.000000 -1.000000 0.000000
vn 0.000000 -1.000000 0.000000
vn 1.000000 0.000000 0.000000
vn 1.000000 0.000000 -0.000000
vn 1.000000 0.000000 0.000000
vn 1.000000 0.000000 0.000000
vn 1.000000 0.000000 0.000000
vn 1.000000 0.000000 0.000000
vn 1.000000 0.000000 -0.000000
vn 1.000000 0.000000 0.000000
f 1//1 2//1 3//1
f 1//2 3//2 4//2
f 3//3 5//3 6//3
f 2//4 5//4 3//4
f 5//5 2//5 1//5
f 7//6 5//6 1//6
f 8//7 9//7 10//7
f 11//8 8//8 5//8
f 11//9 5//9 7//9
f 12//10 13//10 7//10
f 12//11 7//11 1//11
f 12//12 14//12 13//12
f 15//13 14//13 12//13
f 16//14 17//14 13//14
f 16//15 13//15 14//15
f 18//16 16//16 19//16
f 18//17 17//17 16//17
f 18//18 9//18 8//18
f 18//19 8//19 11//19
f 18//20 11//20 17//20
f 3//21 6//21 4//21
f 4//22 6//22 20//22
f 20//23 21//23 22//23
f 23//24 24//24 21//24
f 6//25 21//25 20//25
f 25//26 23//26 21//26
f 25//27 21//27 6//27
f 26//28 27//28 25//28
f 26//29 25//29 6//29
f 28//30 27//30 26//30
f 8//31 6//31 5//31
f 8//32 26//32 6//32
f 29//33 30//33 31//33
f 32//34 11//34 7//34
f 32//35 7//35 30//35
f 33//36 34//36 32//36
f 33//37 32//37 30//37
f 33//38 30//38 29//38
f 30//39 35//39 31//39
f 35//40 36//40 31//40
f 37//41 36//41 35//41
f 37//42 38//42 36//42
f 34//43 39//43 32//43
f 39//44 40//44 35//44
f 35//45 40//45 37//45
f 40//46 41//46 42//46
f 34//47 41//47 39//47
f 39//48 41//48 40//48
f 12//49 36//49 38//49
f 15//50 12//50 38//50
f 37//51 15//51 38//51
f 14//52 15//52 37//52
f 40//53 14//53 37//53
f 16//54 14//54 40//54
f 8//55 10//55 43//55
f 8//56 43//56 26//56
f 42//57 16//57 40//57
f 19//58 16//58 42//58
f 10//59 9//59 44//59
f 10//60 44//60 43//60
f 19//61 42//61 41//61
f 18//62 19//62 41//62
f 35//63 30//63 13//63
f 13//64 30//64 7//64
f 39//65 35//65 17//65
f 17//66 35//66 13//66
f 32//67 17//67 11//67
f 32//68 39//68 17//68
f 22//69 21//69 45//69
f 45//70 21//70 46//70
f 46//71 21//71 47//71
f 21//72 24//72 47//72
f 23//73 25//73 48//73
f 48//74 25//74 49//74
f 25//75 27//75 49//75
f 49//76 27//76 50//76
f 44//77 26//77 43//77
f 44//78 28//78 26//78
f 51//79 45//79 47//79
f 45//80 46//80 47//80
f 48//81 49//81 52//81
f 49//82 50//82 52//82
f 31//83 36//83 12//83
f 31//84 22//84 29//84
f 51//85 29//85 22//85
f 20//86 22//86 31//86
f 45//87 51//87 22//87
f 1//88 4//88 20//88
f 12//89 1//89 20//89
f 12//90 20//90 31//90
f 23//91 48//91 52//91
f 33//92 23//92 52//92
f 24//93 51//93 47//93
f 29//94 24//94 23//94
f 29//95 23//95 33//95
f 29//96 51//96 24//96
f 34//97 18//97 41//97
f 27//98 34//98 33//98
f 27//99 28//99 34//99
f 44//100 9//100 28//100
f 52//101 50//101 27//101
f 52//102 27//102 33//102
f 9//103 18//103 34//103
f 9//104 34//104 28//104
