# Created by FreeCAD <https://www.freecad.org>
v -35.000000 0.000000 -90.000000
v 35.000000 0.000000 -90.000000
v -35.000000 -70.000000 -90.000000
v 35.000000 -70.000000 -90.000000
v -35.000000 0.000000 90.000000
v -35.000000 -70.000000 90.000000
v 35.000000 0.000000 90.000000
v 35.000000 -70.000000 90.000000
v -2.500000 -70.000000 -87.000000
v -32.500000 -70.000000 -87.000000
v 32.500000 -70.000000 -87.000000
v 2.500000 -70.000000 -87.000000
v -32.500000 -70.000000 3.000000
v -2.500000 -70.000000 3.000000
v -32.500000 -70.000000 7.000000
v 2.500000 -70.000000 3.000000
v 32.500000 -70.000000 3.000000
v 32.500000 -70.000000 7.000000
v -32.500000 -70.000000 37.000000
v -2.500000 -70.000000 45.000000
v -32.500000 -70.000000 45.000000
v -32.500000 -70.000000 85.000000
v 32.500000 -70.000000 37.000000
v 32.500000 -70.000000 45.000000
v 2.500000 -70.000000 45.000000
v -2.500000 -70.000000 85.000000
v 2.500000 -70.000000 85.000000
v 32.500000 -70.000000 85.000000
v -2.500000 -72.000000 3.000000
v -32.500000 -72.000000 3.000000
v -2.500000 -72.000000 -87.000000
v -32.500000 -72.000000 -87.000000
v -32.500000 -10.000000 85.000000
v -2.500000 -10.000000 45.000000
v -32.500000 -10.000000 45.000000
v 32.500000 -72.000000 3.000000
v 2.500000 -72.000000 3.000000
v 32.500000 -72.000000 -87.000000
v 2.500000 -72.000000 -87.000000
v 32.500000 -10.000000 37.000000
v -32.500000 -10.000000 37.000000
v 2.500000 -10.000000 85.000000
v 32.500000 -10.000000 45.000000
v 2.500000 -10.000000 45.000000
v -12.500000 -72.000000 -45.500000
v -12.500000 -72.000000 -43.500000
v -7.500000 -72.000000 -45.500000
v -7.500000 -72.000000 -43.500000
v -2.500000 -10.000000 85.000000
v 7.500000 -72.000000 -47.500000
v 7.500000 -72.000000 -45.500000
v 12.500000 -72.000000 -47.500000
v 12.500000 -72.000000 -45.500000
v -32.500000 -10.000000 7.000000
v 32.500000 -10.000000 7.000000
v 32.500000 -10.000000 85.000000
v -12.500000 -74.000000 -45.500000
v -12.500000 -74.000000 -43.500000
v -7.500000 -74.000000 -43.500000
v -7.500000 -74.000000 -45.500000
v 7.500000 -74.000000 -45.500000
v 7.500000 -74.000000 -47.500000
v 12.500000 -74.000000 -45.500000
v 12.500000 -74.000000 -47.500000
vn 0.000000 0.000000 -1.000000
vn 0.000000 0.000000 -1.000000
vn -1.000000 -0.000000 -0.000000
vn -1.000000 0.000000 0.000000
vn 1.000000 0.000000 -0.000000
vn 1.000000 0.000000 0.000000
vn 0.000000 1.000000 0.000000
vn 0.000000 1.000000 0.000000
vn 0.000000 -1.000000 0.000000
vn 0.000000 -1.000000 0.000000
vn -0.000000 -1.000000 0.000000
vn 0.000000 -1.000000 0.000000
vn 0.000000 -1.000000 0.000000
vn 0.000000 -1.000000 0.000000
vn 0.000000 -1.000000 0.000000
vn 0.000000 -1.000000 0.000000
vn 0.000000 -1.000000 0.000000
vn -0.000000 -1.000000 -0.000000
vn -0.000000 -1.000000 -0.000000
vn 0.000000 -1.000000 0.000000
vn 0.000000 -1.000000 0.000000
vn 0.000000 -1.000000 0.000000
vn 0.000000 -1.000000 0.000000
vn 0.000000 -1.000000 0.000000
vn 0.000000 -1.000000 0.000000
vn 0.000000 -1.000000 0.000000
vn 0.000000 -1.000000 0.000000
vn 0.000000 -1.000000 0.000000
vn 0.000000 -1.000000 0.000000
vn 0.000000 -1.000000 0.000000
vn 0.000000 -1.000000 -0.000000
vn 0.000000 -1.000000 -0.000000
vn 0.000000 -1.000000 0.000000
vn 0.000000 -1.000000 0.000000
vn 0.000000 -1.000000 0.000000
vn 0.000000 -1.000000 0.000000
vn 0.000000 -1.000000 0.000000
vn 0.000000 -1.000000 0.000000
vn -0.000000 -1.000000 0.000000
vn 0.000000 -1.000000 0.000000
vn 0.000000 -0.000000 1.000000
vn 0.000000 0.000000 1.000000
vn 0.000000 0.000000 1.000000
vn 0.000000 0.000000 1.000000
vn 1.000000 0.000000 -0.000000
vn 1.000000 0.000000 0.000000
vn 0.000000 0.000000 -1.000000
vn 0.000000 0.000000 -1.000000
vn -1.000000 -0.000000 0.000000
vn -1.000000 0.000000 -0.000000
vn 0.000000 0.000000 -1.000000
vn -0.000000 0.000000 -1.000000
vn -1.000000 0.000000 0.000000
vn -1.000000 0.000000 0.000000
vn 1.000000 -0.000000 0.000000
vn 1.000000 0.000000 0.000000
vn 0.000000 0.000000 1.000000
vn -0.000000 0.000000 1.000000
vn 0.000000 0.000000 1.000000
vn 0.000000 0.000000 1.000000
vn 1.000000 0.000000 -0.000000
vn 1.000000 0.000000 0.000000
vn 0.000000 0.000000 -1.000000
vn 0.000000 0.000000 -1.000000
vn -1.000000 -0.000000 0.000000
vn -1.000000 0.000000 -0.000000
vn 0.000000 0.000000 -1.000000
vn -0.000000 0.000000 -1.000000
vn -1.000000 0.000000 0.000000
vn -1.000000 0.000000 0.000000
vn 1.000000 -0.000000 0.000000
vn 1.000000 0.000000 0.000000
vn 0.000000 0.000000 1.000000
vn -0.000000 0.000000 1.000000
vn 0.000000 0.000000 -1.000000
vn -0.000000 0.000000 -1.000000
vn -1.000000 0.000000 0.000000
vn -1.000000 0.000000 0.000000
vn 1.000000 -0.000000 0.000000
vn 1.000000 0.000000 0.000000
vn 0.000000 0.000000 1.000000
vn -0.000000 0.000000 1.000000
vn 0.000000 -1.000000 0.000000
vn -0.000000 -1.000000 0.000000
vn 0.000000 -1.000000 0.000000
vn -0.000000 -1.000000 0.000000
vn 0.000000 -1.000000 0.000000
vn 0.000000 -1.000000 0.000000
vn 0.000000 -1.000000 0.000000
vn 0.000000 -1.000000 0.000000
vn 0.000000 -1.000000 0.000000
vn 0.000000 -1.000000 0.000000
vn -0.000000 -1.000000 0.000000
vn 0.000000 -1.000000 0.000000
vn 0.000000 -1.000000 0.000000
vn 0.000000 -1.000000 0.000000
vn 0.000000 -1.000000 0.000000
vn -0.000000 -1.000000 0.000000
vn 0.000000 -1.000000 0.000000
vn 0.000000 -1.000000 0.000000
vn 0.000000 -1.000000 0.000000
vn 0.000000 -1.000000 0.000000
vn 0.000000 -1.000000 0.000000
vn 0.000000 -1.000000 0.000000
vn -1.000000 0.000000 -0.000000
vn -1.000000 -0.000000 0.000000
vn 0.000000 0.000000 1.000000
vn 0.000000 0.000000 1.000000
vn 1.000000 0.000000 0.000000
vn 1.000000 0.000000 -0.000000
vn 0.000000 0.000000 -1.000000
vn 0.000000 0.000000 -1.000000
vn -1.000000 0.000000 0.000000
vn -1.000000 0.000000 -0.000000
vn 0.000000 0.000000 1.000000
vn 0.000000 0.000000 1.000000
vn 1.000000 0.000000 -0.000000
vn 1.000000 0.000000 0.000000
vn 0.000000 0.000000 -1.000000
vn 0.000000 0.000000 -1.000000
vn 0.000000 -1.000000 0.000000
vn 0.000000 -1.000000 0.000000
vn 0.000000 -1.000000 0.000000
vn 0.000000 -1.000000 0.000000
f 1//1 2//1 3//1
f 3//2 2//2 4//2
f 5//3 1//3 6//3
f 6//4 1//4 3//4
f 2//5 7//5 4//5
f 4//6 7//6 8//6
f 7//7 1//7 5//7
f 7//8 2//8 1//8
f 3//9 9//9 10//9
f 4//10 11//10 12//10
f 10//11 13//11 3//11
f 13//12 14//12 15//12
f 9//13 16//13 14//13
f 12//14 16//14 9//14
f 4//15 17//15 11//15
f 17//16 18//16 16//16
f 19//17 20//17 21//17
f 22//18 6//18 21//18
f 21//19 6//19 19//19
f 23//20 24//20 25//20
f 22//21 26//21 6//21
f 25//22 26//22 20//22
f 25//23 27//23 26//23
f 26//24 27//24 6//24
f 28//25 8//25 27//25
f 24//26 8//26 28//26
f 27//27 8//27 6//27
f 3//28 4//28 12//28
f 3//29 12//29 9//29
f 6//30 3//30 19//30
f 19//31 3//31 15//31
f 15//32 3//32 13//32
f 4//33 8//33 17//33
f 17//34 8//34 18//34
f 18//35 8//35 23//35
f 23//36 8//36 24//36
f 19//37 23//37 20//37
f 20//38 23//38 25//38
f 18//39 15//39 16//39
f 16//40 15//40 14//40
f 8//41 7//41 6//41
f 7//42 5//42 6//42
f 14//43 13//43 29//43
f 29//44 13//44 30//44
f 9//45 14//45 31//45
f 31//46 14//46 29//46
f 10//47 9//47 32//47
f 32//48 9//48 31//48
f 13//49 32//49 30//49
f 13//50 10//50 32//50
f 26//51 22//51 49//51
f 49//52 22//52 33//52
f 20//53 26//53 34//53
f 34//54 26//54 49//54
f 22//55 21//55 33//55
f 33//56 21//56 35//56
f 21//57 20//57 35//57
f 35//58 20//58 34//58
f 17//59 16//59 36//59
f 36//60 16//60 37//60
f 11//61 17//61 38//61
f 38//62 17//62 36//62
f 12//63 11//63 39//63
f 39//64 11//64 38//64
f 16//65 39//65 37//65
f 16//66 12//66 39//66
f 23//67 19//67 40//67
f 40//68 19//68 41//68
f 18//69 23//69 55//69
f 55//70 23//70 40//70
f 19//71 15//71 41//71
f 41//72 15//72 54//72
f 15//73 18//73 54//73
f 54//74 18//74 55//74
f 28//75 27//75 56//75
f 56//76 27//76 42//76
f 24//77 28//77 43//77
f 43//78 28//78 56//78
f 27//79 25//79 42//79
f 42//80 25//80 44//80
f 25//81 24//81 44//81
f 44//82 24//82 43//82
f 31//83 45//83 32//83
f 45//84 46//84 32//84
f 31//85 47//85 45//85
f 46//86 30//86 32//86
f 48//87 29//87 46//87
f 46//88 29//88 30//88
f 31//89 29//89 47//89
f 47//90 29//90 48//90
f 34//91 33//91 35//91
f 34//92 49//92 33//92
f 50//93 51//93 39//93
f 38//94 52//94 39//94
f 39//95 52//95 50//95
f 38//96 53//96 52//96
f 53//97 37//97 51//97
f 51//98 37//98 39//98
f 53//99 36//99 37//99
f 38//100 36//100 53//100
f 54//101 55//101 41//101
f 55//102 40//102 41//102
f 43//103 42//103 44//103
f 43//104 56//104 42//104
f 46//105 45//105 57//105
f 46//106 57//106 58//106
f 48//107 46//107 58//107
f 48//108 58//108 59//108
f 48//109 59//109 60//109
f 47//110 48//110 60//110
f 45//111 47//111 60//111
f 45//112 60//112 57//112
f 61//113 51//113 62//113
f 51//114 50//114 62//114
f 53//115 51//115 63//115
f 63//116 51//116 61//116
f 52//117 53//117 64//117
f 64//118 53//118 63//118
f 50//119 52//119 62//119
f 62//120 52//120 64//120
f 57//121 59//121 58//121
f 60//122 59//122 57//122
f 62//123 63//123 61//123
f 64//124 63//124 62//124
