# Created by FreeCAD <https://www.freecad.org>
v -60.000000 -30.000000 0.000000
v 60.000000 -30.000000 0.000000
v -60.000000 -30.000000 3.000000
v 60.000000 -30.000000 3.000000
v -60.000000 30.000000 0.000000
v -60.000000 30.000000 3.000000
v 60.000000 30.000000 0.000000
v 60.000000 30.000000 3.000000
v -57.500000 27.500000 3.000000
v -57.500000 -27.500000 3.000000
v 57.500000 -27.500000 3.000000
v 57.500000 27.500000 3.000000
v -2.500000 -27.500000 168.000000
v -57.500000 -27.500000 173.000000
v -52.500000 -27.500000 168.000000
v 57.500000 -27.500000 173.000000
v 2.500000 -27.500000 168.000000
v 52.500000 -27.500000 168.000000
v -52.500000 -27.500000 13.000000
v -2.500000 -27.500000 13.000000
v 2.500000 -27.500000 13.000000
v 52.500000 -27.500000 13.000000
v 57.500000 27.500000 173.000000
v -57.500000 27.500000 173.000000
v -60.000000 30.000000 173.000000
v -60.000000 -30.000000 173.000000
v 60.000000 -30.000000 173.000000
v 60.000000 30.000000 173.000000
v -52.500000 -32.500000 168.000000
v -52.500000 -32.500000 13.000000
v -2.500000 -32.500000 13.000000
v -2.500000 -32.500000 168.000000
v 2.500000 -32.500000 168.000000
v 2.500000 -32.500000 13.000000
v 52.500000 -32.500000 13.000000
v 52.500000 -32.500000 168.000000
v 60.000000 -30.000000 176.000000
v -60.000000 -30.000000 176.000000
v -60.000000 30.000000 176.000000
v 60.000000 30.000000 176.000000
v -20.000000 -32.500000 93.000000
v -10.000000 -32.500000 93.000000
v -20.000000 -32.500000 96.000000
v -10.000000 -32.500000 96.000000
v 20.000000 -32.500000 93.000000
v 10.000000 -32.500000 93.000000
v 20.000000 -32.500000 96.000000
v 10.000000 -32.500000 96.000000
v -20.000000 -34.500000 96.000000
v -10.000000 -34.500000 96.000000
v -10.000000 -34.500000 93.000000
v -20.000000 -34.500000 93.000000
v 10.000000 -34.500000 96.000000
v 20.000000 -34.500000 96.000000
v 20.000000 -34.500000 93.000000
v 10.000000 -34.500000 93.000000
vn 0.000000 -1.000000 0.000000
vn 0.000000 -1.000000 0.000000
vn -1.000000 0.000000 0.000000
vn -1.000000 -0.000000 0.000000
vn 1.000000 0.000000 0.000000
vn 1.000000 -0.000000 0.000000
vn 0.000000 0.000000 -1.000000
vn 0.000000 0.000000 -1.000000
vn 0.000000 0.000000 1.000000
vn 0.000000 0.000000 1.000000
vn 0.000000 0.000000 1.000000
vn 0.000000 0.000000 1.000000
vn 0.000000 0.000000 1.000000
vn 0.000000 0.000000 1.000000
vn 0.000000 0.000000 1.000000
vn 0.000000 0.000000 1.000000
vn 0.000000 1.000000 -0.000000
vn 0.000000 1.000000 0.000000
vn 0.000000 -1.000000 0.000000
vn 0.000000 -1.000000 0.000000
vn 0.000000 -1.000000 0.000000
vn 0.000000 -1.000000 0.000000
vn -0.000000 -1.000000 0.000000
vn 0.000000 -1.000000 0.000000
vn 0.000000 -1.000000 0.000000
vn -0.000000 -1.000000 0.000000
vn 0.000000 -1.000000 0.000000
vn 0.000000 -1.000000 0.000000
vn 0.000000 -1.000000 0.000000
vn 0.000000 -1.000000 0.000000
vn -0.000000 -1.000000 0.000000
vn 0.000000 -1.000000 0.000000
vn 1.000000 0.000000 0.000000
vn 1.000000 -0.000000 0.000000
vn 0.000000 1.000000 0.000000
vn 0.000000 1.000000 0.000000
vn -1.000000 0.000000 0.000000
vn -1.000000 0.000000 0.000000
vn 0.000000 0.000000 -1.000000
vn 0.000000 0.000000 -1.000000
vn 0.000000 0.000000 -1.000000
vn 0.000000 -0.000000 -1.000000
vn 0.000000 0.000000 -1.000000
vn 0.000000 0.000000 -1.000000
vn 0.000000 0.000000 -1.000000
vn 0.000000 0.000000 -1.000000
vn -1.000000 -0.000000 -0.000000
vn -1.000000 0.000000 0.000000
vn 0.000000 0.000000 -1.000000
vn 0.000000 0.000000 -1.000000
vn 1.000000 0.000000 -0.000000
vn 1.000000 0.000000 0.000000
vn 0.000000 0.000000 1.000000
vn 0.000000 0.000000 1.000000
vn -1.000000 -0.000000 -0.000000
vn -1.000000 0.000000 0.000000
vn 0.000000 0.000000 -1.000000
vn 0.000000 0.000000 -1.000000
vn 1.000000 0.000000 -0.000000
vn 1.000000 0.000000 0.000000
vn 0.000000 0.000000 1.000000
vn 0.000000 0.000000 1.000000
vn -0.000000 -1.000000 0.000000
vn 0.000000 -1.000000 -0.000000
vn -1.000000 0.000000 0.000000
vn -1.000000 0.000000 0.000000
vn 1.000000 0.000000 0.000000
vn 1.000000 0.000000 0.000000
vn -0.000000 1.000000 0.000000
vn 0.000000 1.000000 0.000000
vn 0.000000 -1.000000 0.000000
vn 0.000000 -1.000000 0.000000
vn -0.000000 -1.000000 -0.000000
vn -0.000000 -1.000000 0.000000
vn 0.000000 -1.000000 0.000000
vn 0.000000 -1.000000 0.000000
vn 0.000000 -1.000000 0.000000
vn 0.000000 -1.000000 0.000000
vn 0.000000 -1.000000 0.000000
vn 0.000000 -1.000000 0.000000
vn 0.000000 -1.000000 0.000000
vn -0.000000 -1.000000 -0.000000
vn -0.000000 -1.000000 0.000000
vn 0.000000 -1.000000 0.000000
vn 0.000000 -1.000000 0.000000
vn 0.000000 -1.000000 0.000000
vn 0.000000 0.000000 1.000000
vn 0.000000 0.000000 1.000000
vn 0.000000 0.000000 1.000000
vn 0.000000 0.000000 1.000000
vn 1.000000 0.000000 0.000000
vn 1.000000 0.000000 -0.000000
vn 0.000000 0.000000 -1.000000
vn 0.000000 0.000000 -1.000000
vn -1.000000 -0.000000 0.000000
vn -1.000000 0.000000 -0.000000
vn 0.000000 0.000000 1.000000
vn 0.000000 0.000000 1.000000
vn 1.000000 0.000000 0.000000
vn 1.000000 0.000000 -0.000000
vn 0.000000 0.000000 -1.000000
vn 0.000000 0.000000 -1.000000
vn -1.000000 -0.000000 0.000000
vn -1.000000 0.000000 -0.000000
vn 0.000000 -1.000000 0.000000
vn 0.000000 -1.000000 0.000000
vn 0.000000 -1.000000 0.000000
vn 0.000000 -1.000000 0.000000
f 1//1 2//1 3//1
f 3//2 2//2 4//2
f 5//3 1//3 6//3
f 6//4 1//4 3//4
f 2//5 7//5 4//5
f 4//6 7//6 8//6
f 5//7 2//7 1//7
f 5//8 7//8 2//8
f 9//9 6//9 3//9
f 9//10 3//10 10//10
f 11//11 3//11 4//11
f 11//12 10//12 3//12
f 8//13 12//13 11//13
f 8//14 11//14 4//14
f 8//15 6//15 9//15
f 8//16 9//16 12//16
f 7//17 5//17 8//17
f 8//18 5//18 6//18
f 13//19 14//19 15//19
f 16//20 17//20 18//20
f 19//21 15//21 14//21
f 10//22 19//22 14//22
f 20//23 19//23 10//23
f 21//24 13//24 20//24
f 21//25 17//25 13//25
f 21//26 20//26 10//26
f 11//27 22//27 21//27
f 11//28 21//28 10//28
f 11//29 16//29 18//29
f 11//30 18//30 22//30
f 16//31 14//31 13//31
f 16//32 13//32 17//32
f 16//33 11//33 12//33
f 16//34 12//34 23//34
f 23//35 12//35 9//35
f 23//36 9//36 24//36
f 10//37 24//37 9//37
f 10//38 14//38 24//38
f 25//39 24//39 26//39
f 26//40 24//40 14//40
f 26//41 16//41 27//41
f 14//42 16//42 26//42
f 23//43 28//43 16//43
f 16//44 28//44 27//44
f 25//45 28//45 24//45
f 24//46 28//46 23//46
f 15//47 19//47 29//47
f 29//48 19//48 30//48
f 19//49 20//49 30//49
f 30//50 20//50 31//50
f 20//51 13//51 31//51
f 31//52 13//52 32//52
f 13//53 15//53 32//53
f 32//54 15//54 29//54
f 17//55 21//55 33//55
f 33//56 21//56 34//56
f 21//57 22//57 34//57
f 34//58 22//58 35//58
f 22//59 18//59 35//59
f 35//60 18//60 36//60
f 18//61 17//61 36//61
f 36//62 17//62 33//62
f 37//63 38//63 26//63
f 37//64 26//64 27//64
f 38//65 39//65 25//65
f 38//66 25//66 26//66
f 40//67 37//67 27//67
f 40//68 27//68 28//68
f 39//69 40//69 28//69
f 39//70 28//70 25//70
f 31//71 41//71 30//71
f 31//72 42//72 41//72
f 43//73 29//73 41//73
f 41//74 29//74 30//74
f 44//75 32//75 43//75
f 43//76 32//76 29//76
f 31//77 32//77 42//77
f 42//78 32//78 44//78
f 35//79 45//79 34//79
f 34//80 45//80 46//80
f 47//81 33//81 48//81
f 48//82 33//82 46//82
f 46//83 33//83 34//83
f 47//84 36//84 33//84
f 35//85 36//85 45//85
f 45//86 36//86 47//86
f 37//87 39//87 38//87
f 40//88 39//88 37//88
f 44//89 49//89 50//89
f 44//90 43//90 49//90
f 42//91 50//91 51//91
f 42//92 44//92 50//92
f 41//93 51//93 52//93
f 41//94 42//94 51//94
f 43//95 52//95 49//95
f 43//96 41//96 52//96
f 47//97 53//97 54//97
f 47//98 48//98 53//98
f 45//99 54//99 55//99
f 45//100 47//100 54//100
f 46//101 55//101 56//101
f 46//102 45//102 55//102
f 48//103 56//103 53//103
f 48//104 46//104 56//104
f 51//105 50//105 52//105
f 52//106 50//106 49//106
f 55//107 54//107 56//107
f 56//108 54//108 53//108
